<?xml version="1.0" encoding="UTF-8" standalone="no"?>
<svg width="93px" height="57px" viewBox="0 0 93 57" version="1.1" xmlns="http://www.w3.org/2000/svg" xmlns:xlink="http://www.w3.org/1999/xlink" xmlns:sketch="http://www.bohemiancoding.com/sketch/ns">
    <!-- Generator: Sketch 3.3.1 (12002) - http://www.bohemiancoding.com/sketch -->
    <title>Listener &gt; Send &gt; Done Copy</title>
    <desc>Created with Sketch.</desc>
    <defs>
        <rect id="path-1" x="5.49371474" y="4.70238483" width="22.5345432" height="22.5856968" rx="3.95505618"></rect>
    </defs>
    <g id="Page-1" stroke="none" stroke-width="1" fill="none" fill-rule="evenodd" sketch:type="MSPage">
        <g id="Listener-&gt;-Send-&gt;-Done-Copy" sketch:type="MSArtboardGroup">
            <g id="лого-+-leaf" sketch:type="MSLayerGroup" transform="translate(5.000000, 13.000000)">
                <g id="лого" transform="translate(34.033354, 7.910112)" fill="#FFFFFF" sketch:type="MSShapeGroup">
                    <g id="Group">
                        <path d="M32.8946232,4.69608112 L35.0373259,4.69608112 C35.110895,4.94469718 35.1292873,14.3552754 35.0557182,14.8248835 L32.876231,14.8248835 C32.7934656,14.4289394 32.8854271,14.0145793 32.8118579,13.5541792 C32.4624043,13.8580433 32.1497352,14.1619074 31.7818893,14.3828994 C30.5679977,15.1011236 29.2621446,15.3129076 27.9103108,14.9445876 C26.4021424,14.5302275 25.7032351,13.3976432 25.4457429,11.9335708 C25.3813699,11.5928748 25.3721738,11.2521787 25.3721738,10.9022746 L25.3721738,5.11044122 L25.3721738,4.71449712 L27.551661,4.71449712 C27.6344263,4.83420115 27.5976417,4.97232118 27.5976417,5.11044122 C27.5976417,6.81392162 27.5976417,8.51740203 27.6068379,10.2116744 C27.6068379,10.5247465 27.6252301,10.8286106 27.6712109,11.1416827 C27.8091531,12.1729789 28.4436874,12.8359551 29.4828521,12.9740751 C30.8530783,13.1582351 31.9106354,12.596547 32.7474849,11.5284187 C32.8670348,11.3810907 32.8578387,11.2061387 32.8578387,11.0403946 L32.8578387,5.14727323 C32.8486425,4.99994519 32.8210541,4.86182516 32.8946232,4.69608112 L32.8946232,4.69608112 Z" id="Shape"></path>
                        <path d="M45.6496812,7.36640175 C45.0703239,7.09936969 44.5645357,6.82312962 44.021963,6.66659359 C43.0655635,6.39035352 42.0907718,6.25223349 41.0975877,6.42718553 C40.7757225,6.48243354 40.4722496,6.59292957 40.2239536,6.81392162 C39.7641462,7.21907372 39.8101269,7.82680186 40.3435035,8.13987394 C40.9964301,8.52661003 41.7505143,8.60948205 42.47701,8.77522609 C43.3230557,8.96859414 44.1415129,9.20800219 44.8772048,9.68681831 C46.6152768,10.8101946 46.7164345,13.4068512 44.5645357,14.5118115 C43.5713517,15.0182516 42.5137946,15.1563716 41.4286491,15.1195396 C40.2515421,15.0827076 39.1112196,14.8709235 38.0260741,14.3828994 C37.6582282,14.2171554 37.4467168,14.0237873 37.4926975,13.5633872 C37.5478744,13.0569471 37.5018937,12.541299 37.5018937,11.9704029 C38.0996433,12.3387229 38.6606084,12.642587 39.2767503,12.8267471 C40.435465,13.1674431 41.6033759,13.3239792 42.8080714,13.0477391 C43.1023481,12.9832831 43.3690364,12.8543711 43.589744,12.642587 C44.0035707,12.2374349 43.9575899,11.6297068 43.4609979,11.3258427 C42.9000328,10.9667306 42.2379101,10.8838586 41.6033759,10.7181146 C40.7941148,10.5063305 39.9848538,10.3037545 39.2215734,9.93543437 C38.1180356,9.40137024 37.5662667,8.54502603 37.6122474,7.30194574 C37.6582282,6.06807344 38.3479393,5.29460126 39.4238887,4.86182516 C40.8584879,4.27251302 42.3390678,4.34617703 43.8288438,4.6132091 C44.399005,4.71449712 44.9323817,4.91707317 45.4381698,5.20252124 C45.5669159,5.27618526 45.6588774,5.34064127 45.6588774,5.51559331 C45.6496812,6.09569745 45.6496812,6.69421759 45.6496812,7.36640175 L45.6496812,7.36640175 Z" id="Shape"></path>
                        <path d="M-0.0275884456,4.69608112 L1.80244511,4.69608112 C1.88521045,4.34617703 1.8392297,4.02389696 1.84842585,3.70161688 C1.857622,3.15834475 1.86681815,2.61507262 2.04154497,2.0994245 C2.4645678,0.893176213 3.34739806,0.276240066 4.58887811,0.165744039 C5.46251222,0.0920800219 6.32695018,0.193368046 7.1637997,0.488024116 C7.29254577,0.534064127 7.42129185,0.552480132 7.42129185,0.75505618 C7.41209571,1.30753631 7.42129185,1.85080844 7.42129185,2.45853659 C6.89711139,2.32041655 6.42810781,2.14546451 5.92231965,2.1178405 C5.74759282,2.1086325 5.58206215,2.0994245 5.40733533,2.12704851 C4.58887811,2.22833653 4.17505143,2.64269663 4.11067839,3.47141683 C4.08308994,3.85815292 4.10148224,4.25409701 4.10148224,4.67766511 L7.38450726,4.67766511 L7.38450726,6.63896958 L4.09228609,6.63896958 L4.09228609,10.7273226 L4.09228609,14.8248835 C3.61397418,14.8248835 2.80281125,14.81978 2.28378703,14.8176434 C1.99452084,14.8164525 1.79629049,14.8176436 1.79629049,14.8176436 L1.79629049,6.66760619 C1.79629049,6.66760619 0.487395871,6.65738559 -0.0275884456,6.65738559 L-0.0275884456,4.69608112 Z" id="Shape"></path>
                        <path d="M22.8248406,7.04412168 C22.1811102,6.77708961 21.5925567,6.55609756 20.9672186,6.46401754 C19.3946772,6.23381748 17.9968627,6.54688956 17.0496594,7.92808989 C16.3323598,8.95938613 16.2955752,10.1103864 16.8473441,11.2337627 C17.4175053,12.403179 18.4198855,13.0016991 19.6981501,13.1121951 C20.7465111,13.2042751 21.7580874,13.0293231 22.6960945,12.522883 C22.7696637,12.486051 22.8432329,12.412387 22.9903713,12.449219 L22.9903713,14.1803234 C22.9903713,14.2724034 22.9259983,14.3184434 22.8524291,14.3552754 C20.6637457,15.5062757 17.3531323,15.5615237 15.3391757,13.0201151 C13.4447691,10.6352425 13.7850266,5.75500137 18.327924,4.57637709 C19.7625232,4.208057 21.1971223,4.38300904 22.5673485,4.98152919 C22.7604676,5.06440121 22.8524291,5.16568923 22.8432329,5.38668128 C22.8156445,5.92074541 22.8248406,6.45480954 22.8248406,7.04412168 L22.8248406,7.04412168 Z" id="Shape"></path>
                        <path d="M11.7802663,14.8340915 L9.56399446,14.8340915 L9.56399446,4.71449712 L11.7802663,4.71449712 L11.7802663,14.8340915 L11.7802663,14.8340915 Z" id="Shape"></path>
                        <path d="M10.6767284,2.86368868 C9.86746736,2.86368868 9.26052156,2.25596054 9.26971771,1.44565634 C9.27891385,0.644560153 9.9134481,0.0184160044 10.6951207,0.0276240066 C11.4584011,0.0368320088 12.0653469,0.67218416 12.0653469,1.46407235 C12.0653469,2.24675253 11.4584011,2.86368868 10.6767284,2.86368868 L10.6767284,2.86368868 Z" id="Shape"></path>
                    </g>
                </g>
                <g id="leaf">
                    <mask id="mask-2" sketch:name="background" fill="white">
                        <use xlink:href="#path-1"></use>
                    </mask>
                    <use id="background" fill="#FFFFFF" sketch:type="MSShapeGroup" transform="translate(16.760986, 15.995233) rotate(-315.000000) translate(-16.760986, -15.995233) " xlink:href="#path-1"></use>
                    <path d="M16.0793314,24.0941944 C16.7563552,24.0941944 20.590794,21.0082093 20.590794,18.1828842 C20.590794,15.3575592 18.8982345,12.8853998 17.8826988,11.1195716 C16.8671631,9.35374344 15.3438595,7.05816683 14.8360917,7.05816683 C14.3283238,7.05816683 12.6357643,9.70690907 11.9587405,10.766406 C11.2817167,11.8259029 9.08138932,14.8278107 9.08138932,17.8297186 C9.08138933,20.8316265 11.6184891,23.8969801 13.1417927,24.4267285 L13.0850841,28.8344217 C13.0850841,28.8344217 13.4820441,29.8373501 13.9898119,29.8373501 C14.4975798,29.8373501 14.6668357,29.4841844 14.6668357,28.7778532 C14.6668357,28.0715219 14.4975798,12.8853998 14.4975798,12.8853998 C14.4975798,12.8853998 14.6820909,12.3625287 14.9044339,12.3625285 C15.1267769,12.3625282 15.2888904,12.8288312 15.2888904,12.8288312 C15.2888904,12.8288312 16.0793314,24.0941944 16.0793314,24.0941944 Z" fill="#13B4F0" sketch:type="MSShapeGroup" mask="url(#mask-2)">
                        <g transform="translate(14.836092, 18.447758) rotate(-315.000000) translate(-14.836092, -18.447758) "></g>
                    </path>
                </g>
            </g>
        </g>
    </g>
</svg>