<?xml version="1.0" encoding="UTF-8" standalone="no"?>
<svg width="126px" height="128px" viewBox="0 0 126 128" version="1.1" xmlns="http://www.w3.org/2000/svg" xmlns:xlink="http://www.w3.org/1999/xlink" xmlns:sketch="http://www.bohemiancoding.com/sketch/ns">
    <!-- Generator: Sketch 3.3.1 (12002) - http://www.bohemiancoding.com/sketch -->
    <title>Listener &gt; Send &gt; Done Copy</title>
    <desc>Created with Sketch.</desc>
    <defs></defs>
    <g id="Page-1" stroke="none" stroke-width="1" fill="none" fill-rule="evenodd" sketch:type="MSPage">
        <g id="Listener-&gt;-Send-&gt;-Done-Copy" sketch:type="MSArtboardGroup" fill="#FFFFFF">
            <g id="Group" sketch:type="MSLayerGroup" transform="translate(71.000000, 14.000000)">
                <path d="M7.23860839,7.58039078 C8.88697216,5.93202701 9.17131431,4.13671762 8.9349544,2.23534221 C8.81176314,1.24389327 7.97941323,0.56559162 6.88671228,0.778512836 C6.50182838,0.853564013 6.17471257,1.06814251 5.89210662,1.35074847 C5.46642202,1.7765909 5.22935184,2.34638007 5.30100954,2.91711626 C5.37866502,3.53946493 5.46776363,4.30047282 4.71322703,5.05500942 C3.95482344,5.81341301 3.19855064,5.72352521 2.58188408,5.64318652 C2.0072809,5.57002938 1.43543986,5.80741523 1.00833474,6.23452035 C0.72564986,6.51720523 0.511229198,6.84337401 0.437046121,7.22928385 C0.245985237,8.23036081 0.895955265,9.14849477 1.885668,9.27563194 C3.78451803,9.52035717 5.59024463,9.22875454 7.23860839,7.58039078 L7.23860839,7.58039078 Z" id="Shape-Copy" sketch:type="MSShapeGroup"></path>
                <path d="M12.466103,7.58039078 C10.8177392,5.93202701 10.5333971,4.13671762 10.769757,2.23534221 C10.8929483,1.24389327 11.7252982,0.56559162 12.8179991,0.778512836 C13.202883,0.853564013 13.5299988,1.06814251 13.8126048,1.35074847 C14.2382894,1.7765909 14.4753596,2.34638007 14.4037019,2.91711626 C14.3260464,3.53946493 14.2369478,4.30047282 14.9914844,5.05500942 C15.749888,5.81341301 16.5061608,5.72352521 17.1228273,5.64318652 C17.6974305,5.57002938 18.2692715,5.80741523 18.6963767,6.23452035 C18.9790615,6.51720523 19.1934822,6.84337401 19.2676653,7.22928385 C19.4587262,8.23036081 18.8087561,9.14849477 17.8190434,9.27563194 C15.9201934,9.52035717 14.1144668,9.22875454 12.466103,7.58039078 L12.466103,7.58039078 Z" id="Shape-Copy-3" sketch:type="MSShapeGroup"></path>
                <path d="M7.23860839,12.4554751 C8.88697216,14.1038389 9.17131431,15.8991483 8.9349544,17.8005237 C8.81176314,18.7919726 7.97941323,19.4702743 6.88671228,19.2573531 C6.50182838,19.1823019 6.17471257,18.9677234 5.89210662,18.6851174 C5.46642202,18.259275 5.22935184,17.6894858 5.30100954,17.1187496 C5.37866502,16.496401 5.46776363,15.7353931 4.71322703,14.9808565 C3.95482344,14.2224529 3.19855064,14.3123407 2.58188408,14.3926794 C2.0072809,14.4658365 1.43543986,14.2284507 1.00833474,13.8013455 C0.72564986,13.5186607 0.511229198,13.1924919 0.437046121,12.806582 C0.245985237,11.8055051 0.895955265,10.8873711 1.885668,10.760234 C3.78451803,10.5155087 5.59024463,10.8071113 7.23860839,12.4554751 L7.23860839,12.4554751 Z" id="Shape-Copy-2" sketch:type="MSShapeGroup"></path>
                <path d="M12.466103,12.4554751 C10.8177392,14.1038389 10.5333971,15.8991483 10.769757,17.8005237 C10.8929483,18.7919726 11.7252982,19.4702743 12.8179991,19.2573531 C13.202883,19.1823019 13.5299988,18.9677234 13.8126048,18.6851174 C14.2382894,18.259275 14.4753596,17.6894858 14.4037019,17.1187496 C14.3260464,16.496401 14.2369478,15.7353931 14.9914844,14.9808565 C15.749888,14.2224529 16.5061608,14.3123407 17.1228273,14.3926794 C17.6974305,14.4658365 18.2692715,14.2284507 18.6963767,13.8013455 C18.9790615,13.5186607 19.1934822,13.1924919 19.2676653,12.806582 C19.4587262,11.8055051 18.8087561,10.8873711 17.8190434,10.760234 C15.9201934,10.5155087 14.1144668,10.8071113 12.466103,12.4554751 L12.466103,12.4554751 Z" id="Shape-Copy-4" sketch:type="MSShapeGroup"></path>
            </g>
            <g id="Group-Copy" sketch:type="MSLayerGroup" transform="translate(7.000000, 56.000000)">
                <path d="M5.06702587,5.30627354 C6.22088051,4.15241891 6.41992002,2.89570233 6.25446808,1.56473955 C6.1682342,0.870725289 5.58558926,0.395914134 4.8206986,0.544958985 C4.55127986,0.597494809 4.3222988,0.747699758 4.12447463,0.945523928 C3.82649541,1.24361363 3.66054629,1.64246605 3.71070668,2.04198138 C3.76506551,2.47762545 3.82743454,3.01033097 3.29925892,3.53850659 C2.76837641,4.0693891 2.23898545,4.00646765 1.80731885,3.95023056 C1.40509663,3.89902056 1.0048079,4.06519066 0.705834315,4.36416424 C0.507954902,4.56204366 0.357860439,4.79036181 0.305932285,5.0604987 C0.172189666,5.76125256 0.627168686,6.40394634 1.3199676,6.49294235 C2.64916262,6.66425002 3.91317124,6.46012818 5.06702587,5.30627354 L5.06702587,5.30627354 Z" id="Shape-Copy" sketch:type="MSShapeGroup"></path>
                <path d="M8.7262721,5.30627354 C7.57241747,4.15241891 7.37337796,2.89570233 7.5388299,1.56473955 C7.62506378,0.870725289 8.20770872,0.395914134 8.97259938,0.544958985 C9.24201811,0.597494809 9.47099918,0.747699758 9.66882335,0.945523928 C9.96680256,1.24361363 10.1327517,1.64246605 10.0825913,2.04198138 C10.0282325,2.47762545 9.96586344,3.01033097 10.4940391,3.53850659 C11.0249216,4.0693891 11.5543125,4.00646765 11.9859791,3.95023056 C12.3882013,3.89902056 12.7884901,4.06519066 13.0874637,4.36416424 C13.2853431,4.56204366 13.4354375,4.79036181 13.4873657,5.0604987 C13.6211083,5.76125256 13.1661293,6.40394634 12.4733304,6.49294235 C11.1441354,6.66425002 9.88012674,6.46012818 8.7262721,5.30627354 L8.7262721,5.30627354 Z" id="Shape-Copy-3" sketch:type="MSShapeGroup"></path>
                <path d="M5.06702587,8.71883258 C6.22088051,9.87268721 6.41992002,11.1294038 6.25446808,12.4603666 C6.1682342,13.1543808 5.58558926,13.629192 4.8206986,13.4801471 C4.55127986,13.4276113 4.3222988,13.2774064 4.12447463,13.0795822 C3.82649541,12.7814925 3.66054629,12.3826401 3.71070668,11.9831247 C3.76506551,11.5474807 3.82743454,11.0147751 3.29925892,10.4865995 C2.76837641,9.95571702 2.23898545,10.0186385 1.80731885,10.0748756 C1.40509663,10.1260856 1.0048079,9.95991546 0.705834315,9.66094188 C0.507954902,9.46306246 0.357860439,9.23474431 0.305932285,8.96460743 C0.172189666,8.26385356 0.627168686,7.62115978 1.3199676,7.53216377 C2.64916262,7.3608561 3.91317124,7.56497794 5.06702587,8.71883258 L5.06702587,8.71883258 Z" id="Shape-Copy-2" sketch:type="MSShapeGroup"></path>
                <path d="M8.7262721,8.71883258 C7.57241747,9.87268721 7.37337796,11.1294038 7.5388299,12.4603666 C7.62506378,13.1543808 8.20770872,13.629192 8.97259938,13.4801471 C9.24201811,13.4276113 9.47099918,13.2774064 9.66882335,13.0795822 C9.96680256,12.7814925 10.1327517,12.3826401 10.0825913,11.9831247 C10.0282325,11.5474807 9.96586344,11.0147751 10.4940391,10.4865995 C11.0249216,9.95571702 11.5543125,10.0186385 11.9859791,10.0748756 C12.3882013,10.1260856 12.7884901,9.95991546 13.0874637,9.66094188 C13.2853431,9.46306246 13.4354375,9.23474431 13.4873657,8.96460743 C13.6211083,8.26385356 13.1661293,7.62115978 12.4733304,7.53216377 C11.1441354,7.3608561 9.88012674,7.56497794 8.7262721,8.71883258 L8.7262721,8.71883258 Z" id="Shape-Copy-4" sketch:type="MSShapeGroup"></path>
            </g>
            <g id="happy-outline" sketch:type="MSLayerGroup" transform="translate(37.500000, 57.000000)">
                <g id="Group" sketch:type="MSShapeGroup">
                    <path d="M39.6728795,28.7492187 C39.4219866,28.6180804 39.1399554,28.5487723 38.8572545,28.5487723 C38.1925223,28.5487723 37.5896205,28.915625 37.2831473,29.5072545 C35.2459821,33.4521205 30.4246652,35.7142857 25.0004464,35.7142857 C19.4497768,35.7142857 14.5272321,33.4194196 12.7507813,29.5762277 C12.4618304,28.9524554 11.830692,28.5495536 11.1428571,28.5495536 C10.8868304,28.5495536 10.6382813,28.603683 10.3997768,28.7128348 C9.51517857,29.1228795 9.12779018,30.1767857 9.53660714,31.0629464 C11.8810268,36.1344866 18.0954241,39.2857143 25.0004464,39.2857143 C31.7348214,39.2857143 37.7910714,36.2409598 40.4291295,31.1322545 C40.8765625,30.2660714 40.5358259,29.1962054 39.6728795,28.7492187 L39.6728795,28.7492187 Z" id="Shape"></path>
                    <path d="M42.4992187,22.2292411 C41.3294643,20.7135045 39.8464286,19.6428571 37.5152902,19.6428571 C35.1841518,19.6428571 33.7137277,20.7112723 32.5363839,22.2228795 C31.9223214,23.0110491 32.0313616,24.0792411 32.9544643,24.7013393 C33.2796875,24.9204241 33.6628348,25 34.0625,25 C34.6646205,24.9998884 35.2351562,24.7646205 35.5881696,24.3103795 C35.9732143,23.8154018 36.4483259,23.2142857 37.5154018,23.2142857 C38.5879464,23.2142857 39.0591518,23.8126116 39.4383929,24.3054687 C39.7930804,24.7635045 40.3652902,25 40.969308,25 C41.3689732,25 41.7513393,24.9209821 42.0766741,24.700558 C42.9194196,24.1277902 43.1090402,23.0189732 42.4992187,22.2292411 L42.4992187,22.2292411 Z" id="Shape"></path>
                    <path d="M17.4991071,22.2292411 C16.3294643,20.7135045 14.8464286,19.6428571 12.5152902,19.6428571 C10.1841518,19.6428571 8.71361607,20.7112723 7.53627232,22.2228795 C6.92232143,23.0110491 7.03125,24.0792411 7.95446429,24.7013393 C8.2796875,24.9204241 8.66272321,25 9.06238839,25 C9.66450893,24.9998884 10.2350446,24.7646205 10.5879464,24.3103795 C10.9731027,23.8154018 11.4482143,23.2142857 12.5152902,23.2142857 C13.5878348,23.2142857 14.0590402,23.8126116 14.4382812,24.3054687 C14.7928571,24.7635045 15.365067,25 15.9690848,25 C16.3688616,25 16.7511161,24.9209821 17.0764509,24.700558 C17.9194196,24.1277902 18.1090402,23.0189732 17.4991071,22.2292411 L17.4991071,22.2292411 Z" id="Shape"></path>
                    <path d="M25,0 C11.1928571,0 0,11.1928571 0,25 C0,38.8071429 11.1928571,50 25,50 C38.8071429,50 50,38.8071429 50,25 C50,11.1928571 38.8071429,0 25,0 L25,0 Z M40.1523438,40.1523438 C36.1049107,44.1995536 30.7237723,46.4285714 25,46.4285714 C19.2762277,46.4285714 13.8950893,44.1995536 9.84765625,40.1523438 C5.80044643,36.1049107 3.57142857,30.7237723 3.57142857,25 C3.57142857,19.2762277 5.80044643,13.8950893 9.84765625,9.84765625 C13.8950893,5.80044643 19.2762277,3.57142857 25,3.57142857 C30.7237723,3.57142857 36.1049107,5.80044643 40.1523438,9.84765625 C44.1995536,13.8950893 46.4285714,19.2762277 46.4285714,25 C46.4285714,30.7237723 44.1995536,36.1049107 40.1523438,40.1523438 L40.1523438,40.1523438 Z" id="Shape"></path>
                </g>
            </g>
            <polygon id="Star-1" stroke="#FFFFFF" stroke-width="3" stroke-linecap="round" stroke-linejoin="round" sketch:type="MSShapeGroup" points="107 65.5 101.709933 68.2811529 102.720246 62.3905765 98.4404914 58.2188471 104.354966 57.3594235 107 52 109.645034 57.3594235 115.559509 58.2188471 111.279754 62.3905765 112.290067 68.2811529 "></polygon>
            <polygon id="Star-1-Copy" stroke="#FFFFFF" stroke-width="3" stroke-linecap="round" stroke-linejoin="round" sketch:type="MSShapeGroup" points="38 34.5 32.7099327 37.2811529 33.7202457 31.3905765 29.4404914 27.2188471 35.3549664 26.3594235 38 21 40.6450336 26.3594235 46.5595086 27.2188471 42.2797543 31.3905765 43.2900673 37.2811529 "></polygon>
        </g>
    </g>
</svg>